<svg width="12" height="13" viewBox="0 0 12 13" fill="none" xmlns="http://www.w3.org/2000/svg">
<path d="M11.6298 10.3683C12.0401 10.7789 12.0401 11.4177 11.6298 11.8284C11.4247 12.0337 11.1739 12.125 10.9004 12.125C10.6269 12.125 10.3762 12.0337 10.1711 11.8284L6 7.65334L1.82894 11.8284C1.6238 12.0337 1.37308 12.125 1.09957 12.125C0.826056 12.125 0.575336 12.0337 0.370202 11.8284C-0.0400672 11.4177 -0.0400672 10.7789 0.370202 10.3683L4.54127 6.1932L0.370202 2.01813C-0.0400672 1.60747 -0.0400672 0.96866 0.370202 0.557997C0.78047 0.147334 1.41867 0.147334 1.82894 0.557997L6 4.73307L10.1711 0.557997C10.5813 0.147334 11.2195 0.147334 11.6298 0.557997C12.0401 0.96866 12.0401 1.60747 11.6298 2.01813L7.45873 6.1932L11.6298 10.3683Z" fill="white"/>
</svg>
