<svg width="13" height="11" viewBox="0 0 13 11" fill="none" xmlns="http://www.w3.org/2000/svg">
<path fill-rule="evenodd" clip-rule="evenodd" d="M3.15331 1.11208C3.39735 0.668555 3.66282 0.372066 4.05676 0.215272C4.77864 -0.0717667 7.36403 -0.0717667 8.08534 0.215329C8.47906 0.372038 8.74464 0.668476 8.98887 1.11191L9.26341 1.63838C9.2697 1.64881 9.27548 1.65798 9.28066 1.66588L9.30397 1.69776C9.42907 1.83406 9.63841 1.9164 9.77659 1.9164C11.0831 1.9164 12.1426 2.97559 12.1426 4.28177V7.80008C12.1426 9.46617 10.7912 10.8175 9.12514 10.8175H3.01743C1.35092 10.8175 0 9.46636 0 7.80008V4.28177C0 2.97559 1.05943 1.9164 2.36598 1.9164C2.50366 1.9164 2.7133 1.83394 2.83859 1.69776C2.84109 1.69503 2.84436 1.69097 2.84831 1.68559L2.87953 1.6377L3.15331 1.11208ZM8.19113 1.55126C8.03937 1.27572 7.90222 1.12263 7.74853 1.06146L7.67608 1.03738C7.05126 0.860775 4.87788 0.868803 4.39336 1.06146C4.23974 1.1226 4.10274 1.27561 3.95116 1.55109L3.7175 2.00286L3.65999 2.10694C3.61199 2.18679 3.56397 2.2542 3.50913 2.31394C3.20165 2.64817 2.74676 2.82709 2.36594 2.82709L2.26632 2.83045C1.50913 2.88165 0.910656 3.51206 0.910656 4.28177V7.80008C0.910656 8.96344 1.85388 9.90682 3.01739 9.90682H9.1251C10.2882 9.90682 11.2318 8.96321 11.2318 7.80008V4.28177C11.2318 3.4786 10.5802 2.82709 9.77655 2.82709L9.67084 2.82267C9.31352 2.79327 8.91217 2.61773 8.63299 2.31354C8.57888 2.25459 8.53112 2.18766 8.4834 2.10848C8.47655 2.09712 8.46804 2.08216 8.45826 2.06447L8.38778 1.93227L8.19113 1.55126Z" fill="white"/>
<path d="M9.41337 3.33932C9.74868 3.33932 10.0205 3.61115 10.0205 3.94645C10.0205 4.25781 9.78613 4.51443 9.48418 4.5495L9.41337 4.55358C9.0726 4.55358 8.80078 4.28176 8.80078 3.94645C8.80078 3.6351 9.03516 3.37848 9.33711 3.34341L9.41337 3.33932Z" fill="white"/>
<path fill-rule="evenodd" clip-rule="evenodd" d="M3.68555 6.14912C3.68555 4.83152 4.75336 3.76371 6.07095 3.76371C7.38855 3.76371 8.45636 4.83152 8.45636 6.14912C8.45636 7.46671 7.38855 8.53452 6.07095 8.53452C4.75336 8.53452 3.68555 7.46671 3.68555 6.14912ZM7.54583 6.14912C7.54583 5.33448 6.88575 4.6744 6.07112 4.6744C5.25648 4.6744 4.5964 5.33448 4.5964 6.14912C4.5964 6.96375 5.25648 7.62383 6.07112 7.62383C6.88575 7.62383 7.54583 6.96375 7.54583 6.14912Z" fill="white"/>
</svg>
