<svg width="14" height="16" viewBox="0 0 14 16" fill="none" xmlns="http://www.w3.org/2000/svg">
<mask id="mask0_34_304" style="mask-type:luminance" maskUnits="userSpaceOnUse" x="0" y="0" width="14" height="16">
<path fill-rule="evenodd" clip-rule="evenodd" d="M0 0H13.0774V16H0V0Z" fill="white"/>
</mask>
<g mask="url(#mask0_34_304)">
<path fill-rule="evenodd" clip-rule="evenodd" d="M4.09999 1.15126C2.14362 1.15126 1.15123 1.90495 1.15123 3.39315V14.6939C1.15123 14.7661 1.19267 14.8052 1.22721 14.8252C1.26175 14.8467 1.31624 14.862 1.37918 14.8267L6.27741 12.079C6.4524 11.9816 6.66654 11.9808 6.8423 12.0798L11.6983 14.8229C11.762 14.8597 11.8165 14.8428 11.851 14.8221C11.8856 14.8014 11.9263 14.7622 11.9263 14.6901V3.5336C11.9263 2.94493 11.9263 1.15126 8.98057 1.15126H4.09999ZM1.304 16.0002C1.07758 16.0002 0.851166 15.9396 0.645474 15.8183C0.240997 15.5827 0 15.1613 0 14.6939V3.39315C0 1.23645 1.49434 0 4.10003 0H8.98061C11.584 0 13.0776 1.28865 13.0776 3.5336V14.6901C13.0776 15.1583 12.8366 15.5796 12.4313 15.8153C12.0276 16.0517 11.541 16.0563 11.1327 15.826L6.55835 13.2418L1.94179 15.8314C1.74224 15.9434 1.5235 16.0002 1.304 16.0002Z" fill="#01303F"/>
</g>
<path fill-rule="evenodd" clip-rule="evenodd" d="M9.31725 6.31543H3.70063C3.38288 6.31543 3.125 6.05755 3.125 5.7398C3.125 5.42206 3.38288 5.16417 3.70063 5.16417H9.31725C9.635 5.16417 9.89288 5.42206 9.89288 5.7398C9.89288 6.05755 9.635 6.31543 9.31725 6.31543Z" fill="#01303F"/>
</svg>
