<svg width="23" height="22" viewBox="0 0 23 22" fill="none" xmlns="http://www.w3.org/2000/svg">
<path d="M22.5551 11.2445C22.5551 10.34 22.4816 9.68004 22.3225 8.99561H11.9793V13.0778H18.0506C17.9282 14.0923 17.2672 15.62 15.7983 16.6466L15.7777 16.7833L19.0481 19.313L19.2746 19.3356C21.3555 17.4167 22.5551 14.5933 22.5551 11.2445Z" fill="#4285F4"/>
<path d="M11.9793 22C14.9537 22 17.4507 21.0221 19.2746 19.3355L15.7983 16.6466C14.868 17.2944 13.6195 17.7466 11.9793 17.7466C9.06609 17.7466 6.59353 15.8278 5.71214 13.1755L5.58294 13.1865L2.18241 15.8143L2.13794 15.9377C3.94951 19.531 7.67062 22 11.9793 22Z" fill="#34A853"/>
<path d="M5.71214 13.1757C5.47958 12.4912 5.34499 11.7579 5.34499 11.0001C5.34499 10.2423 5.47958 9.50899 5.69991 8.82455L5.69375 8.67878L2.2506 6.00879L2.13795 6.06229C1.39131 7.55342 0.962891 9.2279 0.962891 11.0001C0.962891 12.7723 1.39131 14.4467 2.13795 15.9379L5.71214 13.1757Z" fill="#FBBC05"/>
<path d="M11.9793 4.2533C14.0479 4.2533 15.4433 5.14552 16.239 5.89113L19.348 2.86C17.4386 1.08778 14.9537 0 11.9793 0C7.67062 0 3.94951 2.46887 2.13794 6.06217L5.6999 8.82443C6.59353 6.17222 9.06609 4.2533 11.9793 4.2533Z" fill="#EB4335"/>
</svg>
