<svg width="17" height="20" viewBox="0 0 17 20" fill="none" xmlns="http://www.w3.org/2000/svg">
<path fill-rule="evenodd" clip-rule="evenodd" d="M3.80267 8.198C3.38867 8.198 3.05267 7.862 3.05267 7.448V5.301C3.06567 2.363 5.44167 0 8.35467 0H8.37467C10.6307 0 12.6447 1.433 13.3837 3.567C13.5197 3.958 13.3117 4.385 12.9197 4.521C12.5287 4.658 12.1017 4.449 11.9657 4.057C11.4367 2.528 9.99167 1.5 8.37167 1.5H8.35767C6.26567 1.5 4.56167 3.194 4.55267 5.284V7.448C4.55267 7.862 4.21667 8.198 3.80267 8.198Z" fill="#01303F"/>
<path fill-rule="evenodd" clip-rule="evenodd" d="M4.542 8.12671C2.864 8.12671 1.5 9.49171 1.5 11.1697V15.4577C1.5 17.1357 2.864 18.5007 4.542 18.5007H12.184C13.861 18.5007 15.226 17.1357 15.226 15.4577V11.1697C15.226 9.49171 13.861 8.12671 12.184 8.12671H4.542ZM12.184 20.0007H4.542C2.037 20.0007 0 17.9627 0 15.4577V11.1697C0 8.66471 2.037 6.62671 4.542 6.62671H12.184C14.688 6.62671 16.726 8.66471 16.726 11.1697V15.4577C16.726 17.9627 14.688 20.0007 12.184 20.0007Z" fill="#01303F"/>
<path fill-rule="evenodd" clip-rule="evenodd" d="M8.36328 15.1744C7.94928 15.1744 7.61328 14.8384 7.61328 14.4244V12.2024C7.61328 11.7884 7.94928 11.4524 8.36328 11.4524C8.77728 11.4524 9.11328 11.7884 9.11328 12.2024V14.4244C9.11328 14.8384 8.77728 15.1744 8.36328 15.1744Z" fill="#01303F"/>
</svg>
