<svg width="18" height="17" viewBox="0 0 18 17" fill="none" xmlns="http://www.w3.org/2000/svg">
<path fill-rule="evenodd" clip-rule="evenodd" d="M7.92115 17H3.76805C1.69065 17 0 15.3094 0 13.2303V3.7706C0 1.6915 1.69065 0 3.76805 0H7.9118C9.9909 0 11.6824 1.6915 11.6824 3.7706V4.5628C11.6824 4.9147 11.3968 5.2003 11.0449 5.2003C10.693 5.2003 10.4074 4.9147 10.4074 4.5628V3.7706C10.4074 2.3936 9.28795 1.275 7.9118 1.275H3.76805C2.3936 1.275 1.275 2.3936 1.275 3.7706V13.2303C1.275 14.6064 2.3936 15.725 3.76805 15.725H7.92115C9.29135 15.725 10.4074 14.6098 10.4074 13.2396V12.4381C10.4074 12.0862 10.693 11.8006 11.0449 11.8006C11.3968 11.8006 11.6824 12.0862 11.6824 12.4381V13.2396C11.6824 15.3136 9.9943 17 7.92115 17Z" fill="#01303F"/>
<mask id="mask0_34_383" style="mask-type:luminance" maskUnits="userSpaceOnUse" x="5" y="7" width="13" height="3">
<path fill-rule="evenodd" clip-rule="evenodd" d="M5.94629 7.8625H17.4561V9.1375H5.94629V7.8625Z" fill="white"/>
</mask>
<g mask="url(#mask0_34_383)">
<path fill-rule="evenodd" clip-rule="evenodd" d="M16.8186 9.1375H6.58379C6.23189 9.1375 5.94629 8.8519 5.94629 8.5C5.94629 8.1481 6.23189 7.8625 6.58379 7.8625H16.8186C17.1705 7.8625 17.4561 8.1481 17.4561 8.5C17.4561 8.8519 17.1705 9.1375 16.8186 9.1375Z" fill="#01303F"/>
</g>
<mask id="mask1_34_383" style="mask-type:luminance" maskUnits="userSpaceOnUse" x="13" y="5" width="5" height="7">
<path fill-rule="evenodd" clip-rule="evenodd" d="M13.6929 5.38496H17.4561V11.6161H13.6929V5.38496Z" fill="white"/>
</mask>
<g mask="url(#mask1_34_383)">
<path fill-rule="evenodd" clip-rule="evenodd" d="M14.3302 11.6161C14.167 11.6161 14.0029 11.5541 13.8788 11.4283C13.6306 11.1784 13.6315 10.7755 13.8805 10.5273L15.9154 8.5L13.8805 6.4736C13.6315 6.2254 13.6298 5.8225 13.8788 5.5726C14.127 5.3227 14.5299 5.3227 14.7798 5.5709L17.2686 8.04865C17.3893 8.16765 17.4565 8.33085 17.4565 8.5C17.4565 8.66915 17.3893 8.83235 17.2686 8.95135L14.7798 11.43C14.6557 11.5541 14.4925 11.6161 14.3302 11.6161Z" fill="#01303F"/>
</g>
</svg>
