<svg width="18" height="21" viewBox="0 0 18 21" fill="none" xmlns="http://www.w3.org/2000/svg">
<mask id="mask0_95_35" style="mask-type:luminance" maskUnits="userSpaceOnUse" x="0" y="0" width="18" height="17">
<path fill-rule="evenodd" clip-rule="evenodd" d="M0.496826 0.577576H17.9999V16.9935H0.496826V0.577576Z" fill="white"/>
</mask>
<g mask="url(#mask0_95_35)">
<path fill-rule="evenodd" clip-rule="evenodd" d="M9.24714 1.997C5.93993 1.997 3.63481 4.58789 3.63481 6.91287C3.63481 8.88017 3.08882 9.78954 2.60622 10.592C2.21919 11.2364 1.91355 11.7455 1.91355 12.8517C2.07157 14.6363 3.24968 15.5741 9.24714 15.5741C15.2115 15.5741 16.4265 14.5947 16.5836 12.7902C16.5807 11.7455 16.2751 11.2364 15.8881 10.592C15.4055 9.78954 14.8595 8.88017 14.8595 6.91287C14.8595 4.58789 12.5544 1.997 9.24714 1.997ZM9.247 16.9935C4.82224 16.9935 0.823302 16.6812 0.496839 12.9122C0.494 11.3528 0.969974 10.5598 1.39012 9.86144C1.81499 9.15363 2.21527 8.48651 2.21527 6.91286C2.21527 3.85356 5.04083 0.577576 9.247 0.577576C13.4532 0.577576 16.2787 3.85356 16.2787 6.91286C16.2787 8.48651 16.679 9.15363 17.1039 9.86144C17.524 10.5598 18 11.3528 18 12.8517C17.6698 16.6812 13.6718 16.9935 9.247 16.9935Z" fill="black"/>
</g>
<path fill-rule="evenodd" clip-rule="evenodd" d="M9.20092 20.9224H9.19903C8.13826 20.9215 7.13426 20.454 6.37252 19.6052C6.1104 19.3147 6.13406 18.8652 6.42551 18.6041C6.71696 18.341 7.16549 18.3647 7.42761 18.657C7.91778 19.203 8.54705 19.503 9.19997 19.503H9.20092C9.85668 19.503 10.4888 19.203 10.9799 18.6561C11.243 18.3656 11.6915 18.3419 11.982 18.6041C12.2735 18.8662 12.2971 19.3157 12.035 19.6062C11.2704 20.455 10.2645 20.9224 9.20092 20.9224Z" fill="black"/>
</svg>
