<svg width="90" height="102" viewBox="0 0 90 102" fill="none" xmlns="http://www.w3.org/2000/svg">
<path fill-rule="evenodd" clip-rule="evenodd" d="M20.8292 44.2186C20.2205 44.2186 19.6368 44.4604 19.2064 44.8908C18.776 45.3212 18.5342 45.9049 18.5342 46.5136C18.5342 47.1223 18.776 47.706 19.2064 48.1364C19.6368 48.5668 20.2205 48.8086 20.8292 48.8086H37.4909C38.0996 48.8086 38.6834 48.5668 39.1138 48.1364C39.5442 47.706 39.786 47.1223 39.786 46.5136C39.786 45.9049 39.5442 45.3212 39.1138 44.8908C38.6834 44.4604 38.0996 44.2186 37.4909 44.2186H20.8292ZM70.9386 13.6459L76.4566 19.1887L69.8284 25.933L76.4566 32.6772L70.9303 38.1952L64.3021 31.4924L57.6739 38.2035L52.1973 32.6689L58.8255 25.9247L52.1973 19.1722L57.7236 13.6625L64.3518 20.357L70.98 13.6459H70.9386ZM64.4347 1.70218e-05C70.2426 0.0101122 75.8746 1.99408 80.4066 5.62638C84.9385 9.25868 88.1012 14.3236 89.3758 19.9899C90.6503 25.6563 89.9608 31.5876 87.4207 36.8106C84.8805 42.0336 80.6404 46.2381 75.3961 48.7341V96.5319C75.3939 97.9309 74.8372 99.2721 73.8479 100.261C72.8586 101.251 71.5174 101.807 70.1184 101.81H5.27775C3.87868 101.807 2.53755 101.251 1.54826 100.261C0.558965 99.2721 0.00221718 97.9309 2.59953e-05 96.5319V18.5591C-0.00215312 17.8642 0.132691 17.1757 0.396844 16.533C0.660997 15.8903 1.04928 15.306 1.53947 14.8135C2.02966 14.321 2.61214 13.93 3.25359 13.6628C3.89505 13.3956 4.58288 13.2576 5.27775 13.2565H41.9816C44.1927 9.23747 47.4433 5.8866 51.3933 3.55449C55.3434 1.22237 59.8476 -0.00527261 64.4347 1.70218e-05ZM70.8806 50.3828C66.4485 51.532 61.7894 51.4724 57.3881 50.2101C52.9869 48.9478 49.0043 46.529 45.855 43.2055C42.7057 39.8819 40.5047 35.775 39.481 31.3122C38.4574 26.8494 38.6485 22.1938 40.0345 17.8299H5.27775C5.08225 17.8306 4.8948 17.9079 4.75578 18.0454C4.6198 18.1854 4.5427 18.3722 4.54036 18.5673V96.5236C4.54036 96.7191 4.61805 96.9067 4.75634 97.045C4.89463 97.1833 5.08218 97.261 5.27775 97.261H70.135C70.3305 97.2604 70.5179 97.183 70.6569 97.0455C70.7929 96.9056 70.87 96.7187 70.8723 96.5236V50.3828H70.8806ZM20.8292 76.4069C20.2271 76.4069 19.6497 76.6461 19.224 77.0718C18.7982 77.4976 18.5591 78.075 18.5591 78.6771C18.5591 79.2792 18.7982 79.8566 19.224 80.2823C19.6497 80.7081 20.2271 80.9472 20.8292 80.9472H52.7027C53.3048 80.9472 53.8822 80.7081 54.308 80.2823C54.7337 79.8566 54.9729 79.2792 54.9729 78.6771C54.9729 78.075 54.7337 77.4976 54.308 77.0718C53.8822 76.6461 53.3048 76.4069 52.7027 76.4069H20.8292ZM20.8292 60.3252C20.2271 60.3252 19.6497 60.5643 19.224 60.9901C18.7982 61.4158 18.5591 61.9933 18.5591 62.5953C18.5591 63.1974 18.7982 63.7749 19.224 64.2006C19.6497 64.6263 20.2271 64.8655 20.8292 64.8655H52.7027C53.3048 64.8655 53.8822 64.6263 54.308 64.2006C54.7337 63.7749 54.9729 63.1974 54.9729 62.5953C54.9729 61.9933 54.7337 61.4158 54.308 60.9901C53.8822 60.5643 53.3048 60.3252 52.7027 60.3252H20.8292Z" fill="#01303F"/>
</svg>
