<svg width="14" height="16" viewBox="0 0 14 16" fill="none" xmlns="http://www.w3.org/2000/svg">
<mask id="mask0_34_312" style="mask-type:luminance" maskUnits="userSpaceOnUse" x="0" y="0" width="14" height="16">
<path fill-rule="evenodd" clip-rule="evenodd" d="M0 0.00917816H13.7349V16H0V0.00917816Z" fill="white"/>
</mask>
<g mask="url(#mask0_34_312)">
<path fill-rule="evenodd" clip-rule="evenodd" d="M3.68336 1.21734C2.34874 1.21734 1.24046 2.29824 1.20904 3.63125V12.2454C1.17924 13.6252 2.26659 14.7616 3.63261 14.7922H10.1277C11.472 14.7367 12.5368 13.6195 12.5271 12.2503V5.10601L8.79388 1.21734H3.69302H3.68336ZM3.69303 16.0004H3.60524C1.57391 15.9545 -0.0434105 14.2647 0.000888748 12.2325V3.61675C0.0476043 1.61845 1.69795 0.00917816 3.68175 0.00917816H3.69545H9.05163C9.21594 0.00917816 9.373 0.0760297 9.48737 0.19443L13.5669 4.44474C13.6749 4.5567 13.7353 4.70731 13.7353 4.86276V12.2454C13.7498 14.2663 12.1759 15.9174 10.1519 15.9996L3.69303 16.0004Z" fill="#01303F"/>
</g>
<path fill-rule="evenodd" clip-rule="evenodd" d="M13.1273 5.6252H10.9083C9.43434 5.62117 8.23584 4.41945 8.23584 2.94711V0.604081C8.23584 0.270628 8.50647 0 8.83992 0C9.17337 0 9.444 0.270628 9.444 0.604081V2.94711C9.444 3.75577 10.102 4.41462 10.9099 4.41704H13.1273C13.4607 4.41704 13.7314 4.68766 13.7314 5.02112C13.7314 5.35457 13.4607 5.6252 13.1273 5.6252Z" fill="#01303F"/>
<path fill-rule="evenodd" clip-rule="evenodd" d="M8.6893 11.3632H4.33992C4.00647 11.3632 3.73584 11.0926 3.73584 10.7592C3.73584 10.4257 4.00647 10.1551 4.33992 10.1551H8.6893C9.02275 10.1551 9.29338 10.4257 9.29338 10.7592C9.29338 11.0926 9.02275 11.3632 8.6893 11.3632Z" fill="#01303F"/>
<path fill-rule="evenodd" clip-rule="evenodd" d="M7.04249 8.34123H4.33943C4.00598 8.34123 3.73535 8.0706 3.73535 7.73714C3.73535 7.40369 4.00598 7.13306 4.33943 7.13306H7.04249C7.37594 7.13306 7.64657 7.40369 7.64657 7.73714C7.64657 8.0706 7.37594 8.34123 7.04249 8.34123Z" fill="#01303F"/>
</svg>
