<svg width="18" height="17" viewBox="0 0 18 17" fill="none" xmlns="http://www.w3.org/2000/svg">
<path fill-rule="evenodd" clip-rule="evenodd" d="M8.7498 1.34615C8.66813 1.34615 8.46711 1.36859 8.36031 1.58218L6.7216 4.85871C6.46224 5.37653 5.96237 5.7364 5.38442 5.81896L1.71571 6.34755C1.47341 6.38255 1.39084 6.56204 1.36571 6.63742C1.34328 6.71011 1.30738 6.89499 1.4743 7.05473L4.12712 9.60344C4.54981 10.01 4.74186 10.596 4.64135 11.1695L4.01673 14.7682C3.97814 14.9934 4.11904 15.1245 4.18186 15.1693C4.24827 15.2196 4.42596 15.3192 4.64583 15.2043L7.92596 13.5037C8.44288 13.2372 9.05852 13.2372 9.57365 13.5037L12.8529 15.2034C13.0736 15.3174 13.2513 15.2178 13.3186 15.1693C13.3815 15.1245 13.5224 14.9934 13.4838 14.7682L12.8574 11.1695C12.7568 10.596 12.9489 10.01 13.3716 9.60344L16.0244 7.05473C16.1922 6.89499 16.1563 6.70922 16.133 6.63742C16.1088 6.56204 16.0262 6.38255 15.7839 6.34755L12.1152 5.81896C11.5381 5.7364 11.0383 5.37653 10.7789 4.85781L9.13839 1.58218C9.03249 1.36859 8.83147 1.34615 8.7498 1.34615ZM4.43953 16.6025C4.06889 16.6025 3.70094 16.4859 3.38594 16.2561C2.8421 15.8577 2.57556 15.1998 2.69133 14.5375L3.31594 10.9388C3.33928 10.8051 3.29351 10.6696 3.19479 10.5745L0.541975 8.02575C0.0537707 7.55819 -0.121229 6.86717 0.0851809 6.2255C0.293386 5.57665 0.84441 5.11268 1.52377 5.01576L5.19248 4.48717C5.33427 4.46743 5.45632 4.38038 5.51735 4.25653L7.15696 0.979101C7.4594 0.375127 8.06965 0 8.74991 0C9.43016 0 10.0404 0.375127 10.3429 0.979101L11.9834 4.25563C12.0453 4.38038 12.1664 4.46743 12.3073 4.48717L15.976 5.01576C16.6554 5.11268 17.2064 5.57665 17.4146 6.2255C17.621 6.86717 17.4451 7.55819 16.9569 8.02575L14.3041 10.5745C14.2054 10.6696 14.1605 10.8051 14.1839 10.9379L14.8094 14.5375C14.9243 15.2007 14.6577 15.8586 14.113 16.2561C13.561 16.6609 12.8422 16.7156 12.2328 16.3979L8.95452 14.6991C8.82619 14.6327 8.67273 14.6327 8.54439 14.6991L5.26607 16.3988C5.00402 16.5352 4.72132 16.6025 4.43953 16.6025Z" fill="#01303F"/>
</svg>
